<svg  viewBox="0 0 160 160" fill="none" xmlns="http://www.w3.org/2000/svg">
<path fill-rule="evenodd" clip-rule="evenodd" d="M108.202 41.4094H135.42C144.834 41.4094 152.5 49.2964 152.5 58.9829V127.427C152.5 137.113 144.834 145 135.42 145H22.0803C12.6663 145 5 137.113 5 127.427V58.9829C5 49.2964 12.6663 41.4094 22.0803 41.4602H49.298V24.6865C49.298 19.3418 53.5201 15 58.712 15H98.788C103.98 15 108.202 19.3418 108.202 24.6865V41.4094ZM94.0826 29.5266H63.4174V41.1587H94.0826V29.5266ZM50.8889 95.2185L68.3693 112.5L103.333 77.9338L95.5582 70.25L68.3693 97.1577L58.664 87.5315L50.8889 95.2185Z" fill="#FFFFEB"/>
</svg>
