<svg  viewBox="0 0 160 160" fill="none" xmlns="http://www.w3.org/2000/svg">
<path d="M33.5 134.25C50.6208 134.25 64.5 120.371 64.5 103.25C64.5 86.1292 50.6208 72.25 33.5 72.25C16.3792 72.25 2.5 86.1292 2.5 103.25C2.5 120.371 16.3792 134.25 33.5 134.25Z" fill="#FFFFEB"/>
<path d="M107.125 157.5C117.826 157.5 126.5 148.826 126.5 138.125C126.5 127.424 117.826 118.75 107.125 118.75C96.4245 118.75 87.75 127.424 87.75 138.125C87.75 148.826 96.4245 157.5 107.125 157.5Z" fill="#FFFFEB"/>
<path d="M111 95.5C136.681 95.5 157.5 74.6812 157.5 49C157.5 23.3188 136.681 2.5 111 2.5C85.3188 2.5 64.5 23.3188 64.5 49C64.5 74.6812 85.3188 95.5 111 95.5Z" fill="#FFFFEB"/>
</svg>
