<svg  viewBox="0 0 120 120" fill="none" xmlns="http://www.w3.org/2000/svg">
<path d="M47.625 82.5V76.875H7.65094L7.59375 99.375C7.59375 105.619 12.6834 110.625 19.0312 110.625H99.0938C105.442 110.625 110.531 105.619 110.531 99.375V76.875H70.5V82.5H47.625ZM104.812 31.875H81.8803V20.625L70.4428 9.375H47.5678L36.1303 20.625V31.875H13.3125C7.02187 31.875 1.875 36.9375 1.875 43.125V60C1.875 66.2438 6.96469 71.25 13.3125 71.25H47.625V60H70.5V71.25H104.812C111.103 71.25 116.25 66.1875 116.25 60V43.125C116.25 36.9375 111.103 31.875 104.812 31.875ZM70.5 31.875H47.625V20.625H70.5V31.875Z" fill="#FFFFEB"/>
</svg>
