<svg  viewBox="0 0 120 120" fill="none" xmlns="http://www.w3.org/2000/svg">
<path fill-rule="evenodd" clip-rule="evenodd" d="M101.565 31.0571H81.1515V18.5149C81.1515 14.5063 77.9849 11.25 74.091 11.25H44.034C40.1401 11.25 36.9735 14.5063 36.9735 18.5149V31.0952H16.5602C9.49971 31.0571 3.75 36.9723 3.75 44.2372V95.5699C3.75 102.835 9.49971 108.75 16.5602 108.75H101.565C108.625 108.75 114.375 102.835 114.375 95.5699V44.2372C114.375 36.9723 108.625 31.0571 101.565 31.0571ZM47.5631 22.145H70.5619V30.869H47.5631V22.145ZM54.0882 45.375H64.0368V91.6875H54.0882V45.375ZM38.1667 59.4692H48.1176V91.6875H38.1667V59.4692ZM79.9583 71.5519H70.0074V91.6875H79.9583V71.5519Z" fill="#FFFFEB"/>
</svg>
