<svg  viewBox="0 0 72 72" fill="none" xmlns="http://www.w3.org/2000/svg">
<path d="M32.625 26.415V2.25C15.75 3.9375 2.25 18.4162 2.25 36C2.25 53.5837 15.75 68.0625 32.625 69.75V45.585C29.25 44.2012 25.875 40.455 25.875 36C25.875 31.545 29.25 27.7987 32.625 26.415ZM45.6525 32.625H69.75C68.13 16.5937 56.25 3.83625 39.375 2.25V26.415C42.75 27.4275 44.505 29.7225 45.6525 32.625ZM39.375 45.585V69.75C56.25 68.1637 68.13 55.4063 69.75 39.375H45.6525C44.505 42.2775 42.75 44.5725 39.375 45.585Z" fill="#FFFFEB"/>
</svg>
