<svg  viewBox="0 0 72 72" fill="none" xmlns="http://www.w3.org/2000/svg">
<path d="M68.0652 18.45C67.5676 17.8 66.7382 17.475 65.9088 17.475H14.9861L14.1567 9.1875C13.9908 7.725 12.8297 6.75 11.5027 6.75H6.02896C4.53611 6.75 3.375 7.8875 3.375 9.35C3.375 10.8125 4.53611 11.95 6.02896 11.95H9.01466L12.0004 43.9625C12.0004 43.9625 12.0004 43.9625 12.0004 44.125C12.0004 44.2875 12.0004 44.2875 12.0004 44.45L12.1662 45.5875C12.498 48.35 13.9908 50.7875 15.9813 52.4125C14.8202 53.7125 14.3226 55.5 14.3226 57.2875C14.3226 61.675 17.9718 65.25 22.4503 65.25C26.9289 65.25 30.5781 61.675 30.5781 57.2875C30.5781 56.3125 30.4122 55.5 30.0804 54.525H44.6772C44.3455 55.3375 44.1796 56.3125 44.1796 57.2875C44.1796 61.675 47.8288 65.25 52.3073 65.25C56.7859 65.25 60.4351 61.675 60.4351 57.2875C60.4351 52.9 56.7859 49.325 52.3073 49.325H22.4503C20.4598 49.325 18.6352 48.1875 17.8059 46.4L60.6009 43.9625C61.762 43.9625 62.7573 43.15 63.089 42.0125L68.5628 20.725C68.7287 19.9125 68.5628 19.1 68.0652 18.45Z" fill="#FFFFEB"/>
</svg>
