<svg  viewBox="0 0 48 48" fill="none" xmlns="http://www.w3.org/2000/svg">
<path d="M23.0776 39.1593L20.9363 35.2473H27.0857L24.9444 39.1593L27.1845 46.5H46.5C46.5 33.3681 31.511 37.1264 29.6332 31.5V27.7527C30.4788 27.3352 32.8836 24.456 33.1362 22.2143C33.795 22.1593 34.8382 21.5549 35.1457 19.1484C35.3104 17.8516 34.6515 17.1264 34.2562 16.9066C34.2562 16.9066 35.2445 15.0275 35.2445 12.7527C35.2445 8.2033 33.4546 4.31319 29.6223 4.31319C29.6223 4.31319 28.2936 1.5 24 1.5C16.0498 1.5 12.7555 6.5989 12.7555 12.7527C12.7555 14.8187 13.7438 16.9066 13.7438 16.9066C13.3485 17.1374 12.6896 17.8626 12.8543 19.1484C13.1618 21.5549 14.205 22.1593 14.8638 22.2143C15.1164 24.456 17.5322 27.3352 18.3668 27.7527V31.5C16.489 37.1264 1.5 33.3791 1.5 46.5H20.8155L23.0776 39.1593Z" fill="#FFFFEB"/>
<path d="M32.4444 35.2473H27.7555V31.5H29.4246C30.1384 31.5 30.7862 31.9066 31.1047 32.544L32.4444 35.2473Z" fill="#FFFFEB"/>
<path d="M15.5776 35.2473H20.2665V31.5H18.5974C17.8836 31.5 17.2357 31.9066 16.9173 32.544L15.5776 35.2473Z" fill="#FFFFEB"/>
</svg>
