<svg  viewBox="0 0 48 48" fill="none" xmlns="http://www.w3.org/2000/svg">
<path d="M44.25 45H36.8828V17.6064C36.8828 16.6005 37.7026 15.7766 38.7273 15.7766H42.4055C43.4194 15.7766 44.25 16.5898 44.25 17.6064V45Z" fill="#FFFFEB"/>
<path d="M33.2046 45H25.8375V23.0851C25.8375 22.0792 26.6573 21.2553 27.682 21.2553H31.3602C32.3741 21.2553 33.2046 22.0685 33.2046 23.0851V45Z" fill="#FFFFEB"/>
<path d="M22.1593 45H14.7921V28.5638C14.7921 27.558 15.6119 26.734 16.6366 26.734H20.3148C21.3287 26.734 22.1593 27.5473 22.1593 28.5638V45Z" fill="#FFFFEB"/>
<path d="M3.75757 45V34.0425C3.75757 33.0367 4.57734 32.2127 5.60206 32.2127H9.28025C10.2942 32.2127 11.1247 33.026 11.1247 34.0425V45H3.75757Z" fill="#FFFFEB"/>
<path fill-rule="evenodd" clip-rule="evenodd" d="M32.9837 5.34826C33.4516 6.24369 33.0993 7.34589 32.1967 7.8101L6.43855 21.0575C5.53593 21.5217 4.42489 21.1721 3.95695 20.2767C3.48901 19.3813 3.84139 18.2791 4.744 17.8149L30.5021 4.56747C31.4047 4.10326 32.5158 4.45283 32.9837 5.34826Z" fill="#FFFFEB"/>
<path d="M24.0038 3L29.5265 13.9575L35.0491 3.89885L24.0038 3Z" fill="#FFFFEB"/>
</svg>
