<svg  viewBox="0 0 160 160" fill="none" xmlns="http://www.w3.org/2000/svg">
<path d="M26.3487 84.9058H37.6052C36.4407 87.9247 36.0526 91.3209 36.0526 94.7171V135.849C36.0526 137.358 36.0526 138.868 36.8289 140H17.8092C10.8224 140 5 134.34 5 127.925V105.283C5 93.9624 14.7039 84.9058 26.3487 84.9058Z" fill="#FFFFEB"/>
<path d="M121.836 135.849V94.7171C121.836 91.3209 121.059 87.9247 119.895 84.9058H131.151C142.796 84.9058 152.5 93.9624 152.5 105.283V127.925C152.5 134.717 146.678 140 139.691 140H120.671C121.447 138.868 121.836 137.358 121.836 135.849Z" fill="#FFFFEB"/>
<path d="M109.026 139.998H48.8616C46.5327 139.998 44.5919 138.111 44.5919 135.847V94.7154C44.5919 83.3946 54.2958 74.3381 65.9405 74.3381H91.9471C103.592 74.3381 113.296 83.3946 113.296 94.7154V135.847C113.296 138.111 111.355 139.998 109.026 139.998Z" fill="#FFFFEB"/>
<path d="M66.3283 66.0376C58.5651 61.8867 53.1309 53.9622 53.1309 44.5282C53.1309 30.9434 64.7757 20 78.7493 20C92.723 20 104.368 30.9434 104.368 44.5282C104.368 53.5848 98.9335 61.5093 91.1704 66.0376C87.2888 67.9244 83.019 69.0564 78.7493 69.0564C74.4796 69.4338 69.8217 68.3017 66.3283 66.0376Z" fill="#FFFFEB"/>
<path d="M107.083 70.189C105.53 67.5475 104.754 64.5286 104.754 61.5098C104.754 51.3211 113.293 43.0193 123.774 43.0193C134.254 43.0193 142.793 51.3211 142.793 61.5098C142.793 71.6984 134.254 80.0003 123.774 80.0003C121.057 80.0003 118.339 79.6229 116.399 78.4909C112.129 76.6041 109.024 73.5852 107.083 70.189Z" fill="#FFFFEB"/>
<path d="M41.4824 78.4909C39.1534 79.6229 36.4363 80.0003 34.1074 80.0003C23.6272 80.0003 15.0877 71.6984 15.0877 61.5098C15.0877 51.3211 23.239 43.0193 33.7192 43.0193C44.1995 43.0193 52.739 51.3211 52.739 61.5098C52.739 64.5286 51.9626 67.5475 50.41 70.189C48.8574 73.5852 45.364 76.6041 41.4824 78.4909Z" fill="#FFFFEB"/>
</svg>
