<svg  viewBox="0 0 160 160" fill="none" xmlns="http://www.w3.org/2000/svg">
<path fill-rule="evenodd" clip-rule="evenodd" d="M98.9767 0.282442C96.6647 0.727405 93.7751 2.31995 91.8673 4.20049C84.8647 11.1029 87.0339 22.7066 96.1216 26.9602C98.0713 27.8726 98.3921 27.9252 102.007 27.9252C105.779 27.9252 105.862 27.9098 108.217 26.7626C113.852 24.0171 117.111 17.9552 116.141 12.0197C114.817 3.91563 107.191 -1.29885 98.9767 0.282442ZM39.1788 2.54916C35.4399 3.76866 32.6096 6.19172 30.992 9.55724C30.0438 11.5303 29.9791 11.8852 29.9791 15.1047C29.9791 18.3242 30.0438 18.6791 30.992 20.6522C32.3031 23.3802 34.5901 25.6344 37.3576 26.9267C39.3599 27.8617 39.7184 27.9252 42.9922 27.9252C46.3123 27.9252 46.5966 27.8726 48.6326 26.8848C51.3604 25.5609 53.5934 23.3598 54.9366 20.671C55.9387 18.6641 55.992 18.3839 55.992 15.1113C55.992 11.8843 55.9276 11.531 54.9791 9.55724C53.6629 6.81867 51.3795 4.57134 48.6135 3.29274C46.7562 2.43377 46.0789 2.29275 43.4614 2.21958C41.5847 2.16705 39.969 2.2915 39.1788 2.54916ZM30.375 32.9054C29.7203 33.1356 28.6886 33.6972 28.0821 34.1531C25.5963 36.022 25.8688 34.9029 19.3379 70.0409C16.0356 87.8087 13.3347 102.979 13.3359 103.753C13.3388 105.242 13.912 106.231 15.1277 106.844C15.5147 107.039 17.3705 107.193 19.331 107.193H22.8414V114.511V121.829L19.3202 136.478C17.0266 146.018 15.8056 151.704 15.8186 152.782C15.8547 155.748 17.9399 158.566 20.8581 159.592C24.3384 160.816 28.4497 159.197 30.1545 155.931C30.481 155.306 32.4227 147.918 34.4698 139.514L38.1919 124.235L38.3115 115.714L38.4311 107.193H39.8361C40.6085 107.193 41.2408 107.273 41.2408 107.371C41.2408 107.469 42.0894 110.67 43.1267 114.485L45.0127 121.42L45.6617 136.742C46.4021 154.229 46.4094 154.317 47.2333 155.896C48.6024 158.52 50.9147 159.862 54.0886 159.874C55.9533 159.88 56.5491 159.743 57.8053 159.015C58.6282 158.538 59.675 157.665 60.1319 157.075C61.8988 154.791 61.8988 154.79 61.0623 136.045L60.2978 118.919L58.8502 113.603C58.0543 110.679 57.3256 108.041 57.2311 107.74C57.0757 107.244 57.3589 107.193 60.2778 107.193C63.3984 107.193 63.5234 107.166 64.4069 106.295C64.9078 105.801 65.408 105.043 65.5184 104.609C65.6967 103.908 63.7591 92.375 63.1934 90.7712C63.0713 90.4244 58.2421 85.6762 52.4622 80.2194C46.6822 74.7626 41.7953 69.9105 41.6021 69.4368C41.2681 68.6166 38.0415 50.5229 38.2011 50.3622C38.243 50.3199 39.9788 54.0488 42.0589 58.6485L45.8406 67.0118L51.6942 72.8776L57.5474 78.7435L59.7496 72.4596L61.9518 66.1757L59.0628 63.3105L56.1741 60.4453L53.4323 54.5041C49.8032 46.6395 49.1915 45.2796 49.2845 45.2796C49.3276 45.2796 50.915 47.1783 52.8121 49.4988C54.7091 51.819 56.2924 53.6836 56.3305 53.642C56.4605 53.5 53.6426 38.8751 53.2575 37.6934C52.7023 35.9895 50.8757 34.0483 49.0307 33.2015C47.4785 32.4892 47.1705 32.4658 39.496 32.4761C33.698 32.4839 31.2452 32.5993 30.375 32.9054ZM87.2392 33.4207C85.1883 34.3332 83.225 36.3547 82.4776 38.3238C81.9008 39.8435 81.6083 42.4654 82.0154 42.4654C82.1086 42.4654 82.9293 42.108 83.8394 41.6712C85.4513 40.8976 85.4728 40.8957 84.6585 41.593C76.1276 48.9025 71.292 53.3887 70.7575 54.49C70.42 55.1858 68.2802 61.0166 66.0022 67.4477C61.534 80.0633 61.3437 80.9273 62.5111 83.3044C64.6638 87.6871 71.3872 88.0401 73.8924 83.902C74.2061 83.3835 76.204 78.0343 78.3323 72.0149L82.2016 61.0706L85.4303 58.2564C87.2065 56.7086 89.9385 54.3165 91.5018 52.9406C93.0651 51.5648 94.2148 50.6501 94.0568 50.9081C93.8988 51.1661 92.1832 53.6285 90.2443 56.3802L86.7196 61.3833L84.2804 68.4189L81.8412 75.4545L81.8437 114.257C81.8466 156.35 81.7822 154.758 83.5752 157.075C84.032 157.665 85.0788 158.538 85.9017 159.015C87.1586 159.743 87.7528 159.88 89.6184 159.872C92.2549 159.861 93.9461 159.121 95.4675 157.311C97.545 154.84 97.4838 156.07 97.2227 122.007L96.987 91.2456H98.9336H100.88L100.883 122.593L100.886 153.941L101.626 155.506C104.505 161.6 113.07 161.409 115.847 155.19C116.183 154.438 116.297 146.719 116.424 116.023L116.583 77.7922L121.092 80.5321L125.602 83.2719L125.613 89.5701L125.624 95.8681L124.893 96.0488C123.811 96.3165 121.856 98.389 121.48 99.6667C121.262 100.406 121.183 109.015 121.247 125.196L121.341 149.609L122.225 150.924C122.766 151.731 123.645 152.496 124.498 152.905C125.769 153.513 125.862 153.636 125.59 154.341C125.143 155.5 125.587 157.139 126.626 158.163C129.259 160.759 133.469 158.687 133.143 154.957L133.014 153.472H135.533H138.052L137.841 154.702C137.316 157.764 140.303 160.169 143.166 158.99C144.845 158.299 145.689 156.825 145.483 154.944C145.329 153.539 145.372 153.426 146.178 153.126C147.255 152.725 148.677 151.415 149.365 150.188C149.841 149.341 149.901 146.952 149.983 125.652C150.044 109.767 149.963 101.545 149.735 100.497C149.305 98.5216 148.108 96.9685 146.439 96.2214C145.311 95.7164 144.304 95.6361 139.027 95.6301L132.92 95.6233L132.935 90.542L132.95 85.4607L134.283 84.8144C136.287 83.8429 137.462 81.9939 137.619 79.5621C137.754 77.463 137.316 76.169 135.984 74.7335C135.616 74.337 131.072 71.408 125.887 68.2241L116.46 62.4359L116.363 50.9653C116.271 40.0717 116.232 39.4232 115.598 38.0717C114.648 36.0477 113.162 34.5027 111.272 33.5746L109.638 32.7719L99.1524 32.7788C89.3012 32.7854 88.5804 32.8241 87.2392 33.4207Z" fill="#FEFEE9"/>
</svg>
