<svg  viewBox="0 0 120 120" fill="none" xmlns="http://www.w3.org/2000/svg">
<path d="M114.999 49.6589C114.999 48.599 114.971 47.5104 114.885 46.4792C110.015 46.4792 27.1717 46.4792 24.565 46.4792L20.4114 32.9583C18.8072 27.7448 13.7942 24.1068 8.20831 24.1068C6.43228 24.1068 5 25.5677 5 27.3437C5 29.1198 6.43228 30.5521 8.20831 30.5521C10.9297 30.5521 13.4791 32.3568 14.2525 34.849C19.5806 52.1797 19.065 50.5182 19.151 50.7188C19.2655 51.0339 19.7812 52.5234 25.2238 67.7057C27.2004 73.2344 33.4165 76.9583 40.7211 76.9583H51.8357L48.8279 84.4922C39.4607 82.9167 31.0389 90.1641 31.0389 99.5312C31.0389 107.982 37.8852 115 46.2784 115C53.669 115 59.7419 109.615 61.2028 102.74H72.6324C73.234 105.604 74.6376 108.24 76.7287 110.388C82.7157 116.518 92.3693 116.518 98.3562 110.388C101.221 107.466 102.796 103.599 102.796 99.5312C102.796 90.1641 94.3745 82.9167 85.0073 84.4922L81.9995 76.9583H93.1141C100.39 76.9583 106.606 73.2344 108.611 67.7057C115.2 49.7161 114.999 50.4896 114.999 49.6589ZM72.6038 96.2943H61.1455C60.3148 92.3984 57.9658 89.0469 54.7575 86.8698L58.7106 76.9583H74.9814L78.9345 86.8698C75.7548 89.0469 73.4345 92.3984 72.6038 96.2943Z" fill="#FFFFEB"/>
<path d="M114.025 40.0052C110.043 20.612 93.8587 5 73.7494 5H68.5932C67.1895 5 65.9578 5.88802 65.5281 7.20573L54.6427 40.0052H114.025Z" fill="#FFFFEB"/>
</svg>
