<svg  viewBox="0 0 120 120" fill="none" xmlns="http://www.w3.org/2000/svg">
<path d="M65.2734 31.1111H54.7266V35.625C54.7266 36.8222 55.2822 37.9703 56.2711 38.8168C57.2601 39.6633 58.6014 40.1389 60 40.1389C61.3986 40.1389 62.7399 39.6633 63.7289 38.8168C64.7178 37.9703 65.2734 36.8222 65.2734 35.625V31.1111Z" fill="#FFFFEB"/>
<path fill-rule="evenodd" clip-rule="evenodd" d="M31.875 11.25V21H36.5625V35.625C36.5625 42.0897 39.0318 48.2895 43.4272 52.8607C47.8226 57.4319 53.784 60 60 60C53.784 60 47.8226 62.5681 43.4272 67.1393C39.0318 71.7105 36.5625 77.9103 36.5625 84.375V99H31.875V108.75H88.125V99H83.4375V84.375C83.4375 77.9103 80.9682 71.7105 76.5728 67.1393C72.1774 62.5681 66.216 60 60 60C63.0779 60 66.1256 59.3695 68.9691 58.1446C71.8127 56.9196 74.3964 55.1242 76.5728 52.8607C78.7492 50.5973 80.4756 47.9102 81.6534 44.9529C82.8313 41.9956 83.4375 38.826 83.4375 35.625V21H88.125V11.25H31.875ZM45.9375 21H74.0625V35.625C74.0625 39.5038 72.5809 43.2237 69.9437 45.9664C67.3065 48.7092 63.7296 50.25 60 50.25C56.2704 50.25 52.6935 48.7092 50.0563 45.9664C47.4191 43.2237 45.9375 39.5038 45.9375 35.625V21ZM45.9375 84.375V99H74.0625V84.375C74.0625 80.4962 72.5809 76.7763 69.9437 74.0336C67.3065 71.2908 63.7296 69.75 60 69.75C56.2704 69.75 52.6935 71.2908 50.0563 74.0336C47.4191 76.7763 45.9375 80.4962 45.9375 84.375Z" fill="#FFFFEB"/>
</svg>
