<svg  viewBox="0 0 120 120" fill="none" xmlns="http://www.w3.org/2000/svg">
<path d="M114.384 29.0716L114.117 28.8117C111.451 26.2127 107.186 26.2127 104.787 28.8117L94.3898 38.688C93.8566 39.2078 93.0569 39.2078 92.5237 38.688L78.3945 25.9528C77.0616 24.6533 75.1955 24.1335 73.3294 24.1335H52.269C51.7358 24.1335 51.2026 24.3934 50.936 24.6533L33.0746 41.0271C30.4088 43.6261 30.1422 47.7845 32.8081 50.1236C34.141 51.4231 35.7405 52.2028 37.6066 52.2028C39.4727 52.2028 41.3389 51.4231 42.4052 50.1236L54.9348 37.1285H59.4668L29.8756 69.0964H11.7476C7.48223 69.0964 4.01659 72.2153 3.75 76.1138C3.75 78.193 4.28318 80.2722 5.8827 81.5717C7.21564 83.1311 9.34834 83.9108 11.481 83.9108H38.673C39.2062 83.9108 39.7393 83.6509 40.0059 83.391L53.8685 69.0964L65.5983 81.0519L62.1327 102.884C61.3329 106.522 62.9325 110.161 66.3981 111.72C67.4645 112.24 68.5308 112.5 69.5972 112.5C70.6635 112.5 71.9964 112.24 73.0628 111.72C75.1955 110.681 76.5284 108.861 77.0616 106.522L83.1931 75.0742C83.1931 74.5544 83.1931 73.7747 82.6599 73.5148L66.6647 57.9207L79.4609 45.4454L88.2583 54.0222C90.6576 56.3613 95.1896 56.3613 97.5889 54.0222L114.384 37.9082C115.717 36.6087 116.25 35.0493 116.25 33.4899C116.25 31.9305 115.45 30.3711 114.384 29.0716Z" fill="#FFFFEB"/>
<path d="M92.7902 29.8515C99.1883 29.8515 104.52 24.9134 104.52 18.6758C104.52 12.4381 99.1883 7.5 92.7902 7.5C86.3921 7.5 81.0604 12.4381 81.0604 18.6758C81.3269 24.6535 86.3921 29.8515 92.7902 29.8515Z" fill="#FFFFEB"/>
</svg>
