<svg  viewBox="0 0 160 160" fill="none" xmlns="http://www.w3.org/2000/svg">
<path d="M147.5 81.65C147.5 40.475 115.55 12.5 80 12.5C44.825 12.5 12.5 39.875 12.5 82.1C8 84.65 5 89.45 5 95V110C5 118.25 11.75 125 20 125H27.5V79.25C27.5 50.225 50.975 26.75 80 26.75C109.025 26.75 132.5 50.225 132.5 79.25V132.5H72.5V147.5H132.5C140.75 147.5 147.5 140.75 147.5 132.5V123.35C151.925 121.025 155 116.45 155 111.05V93.8C155 88.55 151.925 83.975 147.5 81.65Z" fill="#FFFFEB"/>
<path d="M57.5 95C61.6421 95 65 91.6421 65 87.5C65 83.3579 61.6421 80 57.5 80C53.3579 80 50 83.3579 50 87.5C50 91.6421 53.3579 95 57.5 95Z" fill="#FFFFEB"/>
<path d="M102.5 95C106.642 95 110 91.6421 110 87.5C110 83.3579 106.642 80 102.5 80C98.3579 80 95 83.3579 95 87.5C95 91.6421 98.3579 95 102.5 95Z" fill="#FFFFEB"/>
<path d="M125 72.725C121.4 51.35 102.8 35 80.375 35C57.65 35 33.2 53.825 35.15 83.375C53.675 75.8 67.625 59.3 71.6 39.2C81.425 58.925 101.6 72.5 125 72.725Z" fill="#FFFFEB"/>
</svg>
