<svg  viewBox="0 0 120 120" fill="none" xmlns="http://www.w3.org/2000/svg">
<path d="M34.3393 81.3313C32.8732 79.5823 29.941 79.5823 28.2306 80.8315L24.0767 85.079C23.0993 86.0784 22.6106 87.0778 22.6106 88.5769C22.6106 91.0754 24.8097 93.3241 27.2532 93.3241C28.7193 93.3241 29.941 92.5745 30.9184 91.5751L34.095 88.3271C34.828 87.5775 35.0723 86.828 35.3167 85.8286C35.8054 84.0796 35.561 82.3307 34.3393 81.3313Z" fill="#FFFFEB"/>
<path d="M23.101 67.3395C21.3905 65.5906 18.214 65.5906 16.5036 67.3395C16.0149 67.5894 13.3271 70.3377 12.8384 70.8374C8.68444 75.5846 15.0375 81.8309 19.6801 77.5834C19.6801 77.5834 22.8566 74.3354 23.101 74.0855C24.8114 72.0867 24.8114 69.0885 23.101 67.3395Z" fill="#FFFFEB"/>
<path d="M43.8729 92.0745C42.6512 92.0745 41.4294 92.5742 40.452 93.5736L37.0311 97.0715C35.3207 98.8205 35.3207 102.069 37.0311 103.818C38.7416 105.566 41.9181 105.566 43.6285 103.818L47.0494 100.32C50.226 97.3214 48.0268 92.0745 43.8729 92.0745Z" fill="#FFFFEB"/>
<path d="M75.3933 39.1067C68.0628 43.8538 58.5333 42.8544 52.1802 36.3583L43.8724 28.1132L54.135 17.6195C43.1393 5.12695 23.8358 4.12754 12.1071 16.3702C0.378404 28.1132 1.11145 47.8514 13.5732 59.0947C22.6141 54.0977 33.6097 61.0935 32.8767 71.5873C38.7411 72.3368 43.8724 77.8335 44.1167 83.8299C49.7367 83.8299 55.1124 88.0774 56.5785 93.5741C61.2211 92.3249 66.3524 93.824 69.5289 97.5717C74.1715 100.32 79.0585 94.5735 75.6376 90.3261L57.0672 71.3374C58.5333 69.8383 61.4654 66.8401 62.9315 65.341L81.2576 84.0798C85.9003 88.3273 92.009 82.081 87.855 77.3338L69.5289 58.595C70.995 57.0959 73.9272 54.0977 75.3933 52.5986C79.5472 56.8461 89.5655 67.0899 93.7194 71.3374C95.4298 73.0864 98.6064 73.0864 100.317 71.3374C102.027 69.5885 102.027 66.3404 100.317 64.5914L75.3933 39.1067Z" fill="#FFFFEB"/>
<path d="M107.893 16.1199C96.6529 4.62672 78.5711 4.62672 67.3311 16.1199C64.8876 18.3685 57.5572 25.864 55.6024 28.1127L58.0459 30.6112C62.1998 34.8587 68.7972 34.8587 72.7068 30.6112L75.6389 27.613C77.105 29.1121 105.694 58.0948 106.427 59.0942C118.889 47.8509 119.622 28.1127 107.893 16.1199Z" fill="#FFFFEB"/>
<path d="M62.9296 102.819C61.2191 101.07 58.0426 101.07 56.3322 102.819L52.9113 106.317C51.2009 108.066 51.2009 111.314 52.9113 113.063C54.6217 114.812 57.7983 114.812 59.5087 113.063L62.9296 109.565C64.8844 107.816 64.8844 104.818 62.9296 102.819Z" fill="#FFFFEB"/>
</svg>
