<svg  viewBox="0 0 120 120" fill="none" xmlns="http://www.w3.org/2000/svg">
<path d="M70.7858 2.5H15.678C8.40013 2.5 2.5 8.39973 2.5 15.6771V89.9477C2.5 97.225 8.40013 103.125 15.678 103.125H51.0488L52.0971 97.225C52.5763 94.5297 53.8341 92.1339 55.7509 90.1873L83.9638 62.0064V15.6771C83.9638 8.39973 78.0636 2.5 70.7858 2.5ZM21.6679 21.6666H40.8359C43.4715 21.6666 45.6279 23.8229 45.6279 26.4583C45.6279 29.0937 43.4715 31.2499 40.8359 31.2499H21.6679C19.0324 31.2499 16.876 29.0937 16.876 26.4583C16.876 23.8229 19.0324 21.6666 21.6679 21.6666ZM45.6279 69.5832H21.6679C19.0324 69.5832 16.876 67.4269 16.876 64.7915C16.876 62.1561 19.0324 59.9999 21.6679 59.9999H45.6279C48.2635 59.9999 50.4199 62.1561 50.4199 64.7915C50.4199 67.4269 48.2635 69.5832 45.6279 69.5832ZM64.7958 50.4166H21.6679C19.0324 50.4166 16.876 48.2603 16.876 45.6249C16.876 42.9895 19.0324 40.8332 21.6679 40.8332H64.7958C67.4314 40.8332 69.5878 42.9895 69.5878 45.6249C69.5878 48.2603 67.4314 50.4166 64.7958 50.4166Z" fill="#FFFFEB"/>
<path d="M62.5195 117.5C61.5611 117.5 60.6626 117.141 59.9737 116.452C59.1351 115.613 58.7757 114.445 58.9854 113.277L61.5311 98.8724C61.6509 98.1537 62.0103 97.4649 62.5195 96.9558L98.1 61.3777C102.473 57.0054 106.755 58.1733 109.122 60.5392L115.052 66.4689C118.316 69.7332 118.316 75.0639 115.052 78.3282L79.4711 113.906C78.962 114.415 78.2731 114.775 77.5543 114.895L63.1484 117.44C62.9388 117.47 62.7291 117.5 62.5195 117.5Z" fill="#FFFFEB"/>
</svg>
