<svg  viewBox="0 0 160 160" fill="none" xmlns="http://www.w3.org/2000/svg">
<path fill-rule="evenodd" clip-rule="evenodd" d="M90.8868 13.8717C87.6747 15.9599 85.3479 17.9056 82.9473 20.5119C72.6574 31.6829 66.8848 49.5153 66.8643 70.1936L66.8585 75.8145L65.1498 74.9419C61.8823 73.2729 58.2361 69.3904 56.4469 65.6746C54.9221 62.5078 53.7241 57.2359 53.7216 53.6829L53.7208 52.5539L52.147 53.5114C47.2491 56.4923 41.564 61.5647 38.1605 65.9906C19.8091 89.8554 25.7703 123.156 51.2772 139.264C66.5963 148.938 86.201 150.178 102.674 142.516C121.874 133.585 133.343 115.047 132.452 94.381C131.931 82.3138 128.207 72.3351 120.145 61.407C119.075 59.9561 115.977 56.113 113.262 52.8667C103.256 40.9046 100.827 37.5826 97.9067 31.8623C95.1079 26.3794 93.68 21.3162 93.2054 15.1907L92.9971 12.5L90.8868 13.8717ZM104.736 78.1578C105.908 85.0433 106.123 87.5385 106.125 94.2491C106.127 99.1514 106.01 101.445 105.64 103.746C103.617 116.315 98.6354 124.081 89.9864 128.149C81.913 131.946 73.9572 131.313 67.4719 126.357C62.8028 122.789 60.2067 117.469 60.2349 111.527C60.262 105.805 62.7798 100.636 67.2836 97.0556C69.6464 95.1771 72.205 94.0053 76.4838 92.8423C85.8463 90.2975 92.8235 86.7898 97.6746 82.1896C99.9746 80.0083 102.268 76.9583 103.145 74.9166C103.433 74.2455 103.752 73.7804 103.855 73.8828C103.957 73.9851 104.354 75.9089 104.736 78.1578Z" fill="#FFFFEB"/>
</svg>
