<svg  viewBox="0 0 120 120" fill="none" xmlns="http://www.w3.org/2000/svg">
<path d="M112.613 57.1861L96.6993 41.3174V22.9864C96.6993 19.6719 94.0058 16.9857 90.6771 16.9857C87.3561 16.9857 84.6626 19.6719 84.6626 22.9864V29.3146L72.8139 17.4987C66.9558 11.6602 56.7705 11.6705 50.9257 17.5093L11.1366 57.1861C8.78779 59.533 8.78779 63.3304 11.1366 65.6738C13.4865 68.02 17.3021 68.02 19.6511 65.6738L59.4364 25.9959C60.7325 24.7102 63.0169 24.7102 64.3062 25.9921L104.098 65.6738C105.278 66.847 106.817 67.4306 108.354 67.4306C109.896 67.4306 111.436 66.8464 112.613 65.6738C114.962 63.3307 114.962 59.5332 112.613 57.1861Z" fill="#FFFFEB"/>
<path d="M63.9652 37.3866C62.8092 36.2345 60.9374 36.2345 59.7849 37.3866L24.7863 72.2768C24.2337 72.8276 23.9204 73.5796 23.9204 74.3643V99.812C23.9204 105.783 28.7758 110.625 34.7638 110.625H52.0917V83.8651H71.6545V110.625H88.9826C94.9704 110.625 99.8258 105.783 99.8258 99.8122V74.3643C99.8258 73.5796 99.5153 72.8276 98.9599 72.2768L63.9652 37.3866Z" fill="#FFFFEB"/>
</svg>
