<svg  viewBox="0 0 120 120" fill="none" xmlns="http://www.w3.org/2000/svg">
<path d="M81.3469 43.7172L81.2438 43.7679C82.4297 45.1354 83.4609 46.7562 84.2344 48.4276L84.6984 49.3899C88.3594 57.9497 85.7812 67.8263 79.0266 74.0055C72.8906 79.5263 64.3313 80.9951 56.3906 79.9821C48.8625 79.0705 41.9531 74.4107 37.9828 67.9782C36.7969 66.0029 35.7656 63.7744 35.25 61.4951C34.5797 59.6211 34.3734 57.7977 34.2188 55.9237C33.7547 47.8198 37.0547 39.2094 43.2938 34.1445C40.4578 40.2731 41.1281 47.9211 45.3047 53.2393L45.8719 53.8977C46.5938 54.5055 47.4703 54.7081 48.2953 54.3536C49.0687 54.0497 49.6875 53.2899 49.6875 52.3782L49.3266 51.264C44.7891 39.5133 48.6047 25.7873 58.2469 18.038C60.8766 15.9107 64.125 13.986 67.5281 13.125C64.0219 20.0133 65.1563 29.0289 70.7766 34.4484C73.1484 36.8289 75.9844 38.399 78.4594 40.6276L81.3469 43.7172ZM69.5906 67.2185L69.5391 67.1679C71.8594 65.1925 73.1484 61.799 73.0453 58.7601L72.8906 57.1393C71.8594 52.0743 67.3734 50.4029 64.4859 46.7055C63.6094 45.5912 62.8359 44.1731 62.2687 42.7549C61.1344 45.2873 61.0312 47.6679 61.4953 50.4029C62.0109 53.2899 63.1969 55.7718 62.5781 58.7601C61.7531 62.0523 59.1234 65.3445 54.5344 66.4081C57.1125 68.8899 61.2891 70.8653 65.4656 69.4471C66.8063 69.0925 68.5078 68.1302 69.5906 67.2185M54.8438 90.3653V95.4302C54.8438 98.2159 57.1641 100.495 60 100.495C62.8359 100.495 65.1562 98.2159 65.1562 95.4302V90.3653H75.4688V95.4302C75.4688 98.2159 77.7891 100.495 80.625 100.495C83.4609 100.495 85.7812 98.2159 85.7812 95.4302V90.3653C91.5047 90.3653 101.25 94.9237 101.25 100.495V110.625H18.75V100.495C18.75 94.9237 28.5469 90.3653 34.2188 90.3653V95.4302C34.2188 98.2159 36.5391 100.495 39.375 100.495C42.2109 100.495 44.5312 98.2159 44.5312 95.4302V90.3653H54.8438Z" fill="#FFFFEB"/>
</svg>
