<svg  viewBox="0 0 120 120" fill="none" xmlns="http://www.w3.org/2000/svg">
<path fill-rule="evenodd" clip-rule="evenodd" d="M54.9511 11.4617C49.8201 12.0477 44.6825 13.8162 41.0807 16.2359C39.4828 17.3094 37.0976 19.6339 36.167 21.0248C33.5817 24.8887 33.0762 29.0924 34.7485 32.8175L35.3256 34.1029H44.0137C48.7922 34.1029 52.7018 34.0688 52.7018 34.0273C52.7018 33.9856 52.4578 33.4501 52.1596 32.8371C51.1136 30.6868 50.7963 29.2801 50.7052 26.3906L50.6213 23.7246L54.8798 21.5991L59.1384 19.4734L63.3447 21.5991L67.5512 23.7246L67.4556 26.3906C67.3521 29.2813 67.0203 30.7329 65.9883 32.812C65.6909 33.4112 65.4476 33.9469 65.4476 34.0021C65.4476 34.0575 69.3571 34.1029 74.1357 34.1029H82.8238L83.4009 32.8175C86.7744 25.3033 81.2305 16.7067 70.7185 13.1516C65.8567 11.5073 60.0242 10.8823 54.9511 11.4617ZM57.6689 26.6128C56.9473 26.9866 56.3289 27.3178 56.295 27.3486C56.2609 27.3797 56.3696 27.9479 56.5362 28.6115C56.8672 29.9287 57.7429 31.5449 58.5529 32.3332C59.0636 32.8304 59.0719 32.8316 59.4681 32.4692C60.455 31.5668 61.4924 29.5414 61.7742 27.9677L61.9009 27.2599L60.5862 26.5871C59.863 26.2173 59.2061 25.9187 59.1262 25.9239C59.0464 25.929 58.3905 26.239 57.6689 26.6128ZM39.4826 40.5231C39.6758 41.5695 40.0815 42.2544 41.1103 43.2727C43.3222 45.4614 47.9746 47.2558 53.4516 48.0327C55.7572 48.3597 62.5531 48.3553 64.8852 48.0253C70.1577 47.2792 74.9722 45.3913 77.0902 43.2395C78.0803 42.2339 78.4771 41.5499 78.6668 40.5231L78.7974 39.8157H59.0747H39.3519L39.4826 40.5231ZM39.4423 53.1682C39.5458 57.5819 39.7821 58.9722 40.9058 61.7775C42.6094 66.0305 46.3001 70.0761 50.3588 72.14C55.9846 75.0005 62.311 74.9697 67.9221 72.0545C71.9533 69.9598 75.2899 66.3337 77.0857 62.0955C78.3496 59.1123 78.6 57.734 78.7071 53.1682L78.8025 49.0965L77.9824 49.6118C74.8968 51.5505 70.3573 53.0255 65.2601 53.7459C62.5533 54.1285 55.0228 54.0746 52.3269 53.6534C47.3051 52.869 43.1414 51.4854 40.1669 49.6129L39.3469 49.0965L39.4423 53.1682ZM39.3937 85.7084V91.4212H42.2053H45.0169V85.7084V79.9956H42.2053H39.3937V85.7084ZM50.64 88.5648V97.134H47.8284H45.0169V102.942V108.75H50.64H56.2631V94.3728V79.9956H53.4516H50.64V88.5648ZM61.8862 94.3728V108.75H78.7556H95.625V100.839C95.625 94.3465 95.5716 92.6654 95.3266 91.4612C94.1849 85.8459 89.8662 81.4585 84.3385 80.2986C83.1192 80.0427 81.2641 79.9956 72.3906 79.9956H61.8862V94.3728ZM31.6893 80.9335C28.3229 82.2049 25.099 85.2638 23.7457 88.4696C22.6434 91.0811 22.6466 91.0497 22.5707 100.228L22.5 108.75H30.9469H39.3937V102.942V97.134H36.5822H33.7706V88.7552C33.7706 79.1347 34.0154 80.0546 31.6893 80.9335Z" fill="#FFFFEB"/>
</svg>
