<svg  viewBox="0 0 48 48" fill="none" xmlns="http://www.w3.org/2000/svg">
<path fill-rule="evenodd" clip-rule="evenodd" d="M23.288 5.46306C23.7466 5.28836 24.2534 5.28836 24.712 5.46306L38.712 10.7964C39.4875 11.0918 40 11.8355 40 12.6654V25.9987C40 33.23 33.6987 39.7737 24.5882 42.5769C24.2049 42.6949 23.7951 42.6949 23.4118 42.5769C14.3615 39.7922 8 33.9415 8 25.9987V12.6654C8 11.8355 8.5125 11.0918 9.28801 10.7964L23.288 5.46306ZM12 14.0437V25.9987C12 31.2598 16.1009 35.9736 23.9983 38.5663C31.842 35.9617 36 30.6527 36 25.9987V14.0437L24 9.47224L12 14.0437Z" fill="#FFFFEB"/>
</svg>
